<?xml version="1.0" encoding="UTF-8"?>
<!-- Generator: Adobe Illustrator 16.0.0, SVG Export Plug-In . SVG Version: 6.00 Build 0)  -->
<!DOCTYPE svg PUBLIC "-//W3C//DTD SVG 1.1//EN" "http://www.w3.org/Graphics/SVG/1.1/DTD/svg11.dtd">
<svg version="1.1" xmlns="http://www.w3.org/2000/svg" xmlns:xlink="http://www.w3.org/1999/xlink" x="0px" y="0px" width="600px" height="600px" viewBox="0 0 600 600" enable-background="new 0 0 600 600" xml:space="preserve">
<g id="Layer_1">
</g>
<g id="Layer_2">
</g>
<g id="Layer_3">
</g>
<g id="Layer_4">
</g>
<g id="Layer_5">
</g>
<g id="Layer_6">
</g>
<g id="Layer_7">
</g>
<g id="Layer_8">
</g>
<g id="Layer_9">
</g>
<g id="Layer_10">
</g>
<g id="Layer_11">
</g>
<g id="Layer_12">
	<g>
		<g>
			<circle fill-rule="evenodd" clip-rule="evenodd" fill="#E2C637" cx="305.489" cy="286.091" r="200"/>
			<path fill-rule="evenodd" clip-rule="evenodd" fill="#C1272D" d="M306.544,110.771c-95.664,0-173.214,77.55-173.214,173.213     c0,95.664,77.55,173.214,173.214,173.214c95.661,0,173.213-77.55,173.213-173.214     C479.757,188.322,402.205,110.771,306.544,110.771z M306.544,450.842c-92.458,0-167.409-74.952-167.409-167.409     c0-92.458,74.951-167.41,167.409-167.41c92.456,0,167.409,74.952,167.409,167.41C473.953,375.89,399,450.842,306.544,450.842z"/>
			<path fill-rule="evenodd" clip-rule="evenodd" fill="#C1272D" d="M306.544,96.625c-103.449,0-187.311,83.862-187.311,187.31     c0,103.447,83.861,187.31,187.311,187.31c103.448,0,187.309-83.862,187.309-187.31     C493.853,180.487,409.992,96.625,306.544,96.625z M306.544,464.369c-99.983,0-181.034-81.052-181.034-181.033     c0-99.981,81.051-181.032,181.034-181.032c99.981,0,181.032,81.051,181.032,181.032     C487.576,383.317,406.525,464.369,306.544,464.369z"/>
			<path fill-rule="evenodd" clip-rule="evenodd" d="M366.424,298.555c-2.599,1.637-3.395,1.518-5.617,1.322     c-1.874-0.702-3.543-1.076-4.776-2.434c-0.175-0.166-0.643-0.508-0.804-0.688c-0.226-0.121-0.646-0.287-0.858-0.43     c-2.294-0.813-3.599-3.058-4.246-5.423c-0.278-0.505-0.521-1.067-0.757-1.675c-3.32-8.58-5.283-17.491-6.071-26.599     c-0.542-6.266-0.646-12.626-0.257-18.9c0.515-8.312,2.405-16.578,2.425-24.868c0.025-11.199-1.156-22.403-1.85-33.604     c-0.076-1.223-0.327-2.438-0.542-3.648c-1.055-5.928-3.188-11.262-8.141-15.115c-6.014-4.678-12.025-3.353-14.474,3.596     c-1.268,3.597-2.138,7.479-2.331,11.274c-0.28,5.495,0.222,11.029,0.38,16.547c0.433,15.206-0.163,30.363-2.272,45.44     c-0.41,2.943-0.999,5.863-3.421,8.29c-3.541-2.279-4.125-5.541-3.479-8.948c2.486-13.116,0.551-26.062-1.106-39.05     c-1.209-9.476-2.288-18.974-3.134-28.488c-0.455-5.115-1.018-10.123-3.49-14.714c-2.734-5.083-7.409-8.187-11.719-7.391     c-5.463,1.01-8.342,4.933-9.733,9.945c-1.458,5.251-0.929,10.593-0.307,15.954c1.078,9.308,2.415,18.632,2.68,27.976     c0.351,12.381,0.304,24.706,3.17,36.894c1.244,5.284,0.983,10.813-3.066,15.853c-1.036-1.365-2.396-2.513-2.913-3.961     c-1.408-3.938-2.758-7.945-3.586-12.035c-1.187-5.855-2.028-11.737-5.459-16.88c-1.101-1.649-1.928-3.586-2.432-5.509     c-1.291-4.909-2.363-9.877-3.461-14.834c-1.803-8.143-3.342-16.369-8.816-23.117c-2.758-3.401-6.401-4.144-10.417-3.415     c-3.672,0.666-5.364,3.592-6.27,6.776c-1.844,6.491-1.375,12.991,0.575,19.432c2.21,7.297,4.516,14.575,6.425,21.953     c1.907,7.377,3.168,14.922,5.108,22.289c1.426,5.409,3.59,10.621,5.236,15.979c0.947,3.082-0.031,5.909-2.096,8.303     c-1.591,1.847-3.779,2.01-5.804,1.141c-1.552-0.665-3.107-1.748-4.163-3.049c-2.253-2.775-4.118-5.863-6.258-8.734     c-6.014-8.074-11.934-16.226-18.197-24.101c-3.474-4.366-7.388-8.428-11.433-12.28c-3.101-2.949-7.484-2.425-10.344,0.641     c-4.738,5.082-6.742,18.162-0.236,23.658c0.925,0.782,1.706,1.773,2.413,2.768c7.855,11.043,15.703,22.091,23.493,33.18     c0.819,1.167,1.459,2.459,2.164,3.827c1.171,1.226,2.04,2.733,2.492,4.402c1.571,2.009,1.822,3.093,1.445,5.903     c0.418,1.35,0.751,2.732,1.008,4.139c0.456,0.916,0.875,1.85,1.25,2.805c2.971,3.687,5.24,7.947,6.595,12.57     c0.311,0.401,0.564,0.926,0.712,1.365c2.259,6.729,4.216,13.57,6.704,20.212c2.954,7.881,7.302,14.941,14.034,20.268     c7.613,6.024,16.446,9.613,25.876,10.93c9.084,1.269,18.356,1.609,27.547,1.62c12.981,0.017,25.448-2.312,36.406-10.096     c6.131-4.358,12.766-8.025,18.775-12.533c3.362-2.522,6.137-5.951,8.784-9.283c5.33-6.704,10.371-13.639,15.596-20.428     c0.083-0.107,0.172-0.215,0.263-0.322c0.39-1.325,1.148-2.502,2.149-3.417c1.092-3.687,2.752-7.147,4.899-10.263     c0.828-1.6,1.773-3.134,2.824-4.589c-0.033-0.153-0.065-0.306-0.101-0.468c1.405-2.021,3.218-4.627,5.402-7.771     c0.452-1.61,1.443-3.012,2.761-3.994c-0.008-0.002-0.015-0.004-0.024-0.008c1.522-2.496,3.02-4.929,4.492-7.376     c1.883-3.126,3.282-6.694,5.714-9.307c5.321-5.714,4.075-13.396-3.202-16.163c-3.995-1.519-8.148-1.477-12,0.54     c-7.488,3.922-14.275,8.934-20.052,15.044c-4.614,4.884-8.457,10.49-12.759,15.68c-0.222,0.268-0.492,0.532-0.789,0.777"/>
			<g>
				<path fill="#ED1C24" d="M207.42,307.498c0,2.473-0.891,4.421-2.669,5.844c-1.779,1.424-4.256,2.136-7.427,2.136      c-2.923,0-5.507-0.55-7.755-1.647v-5.395c1.85,0.824,3.413,1.404,4.692,1.74c1.279,0.338,2.45,0.506,3.513,0.506      c1.273,0,2.25-0.243,2.93-0.729c0.681-0.487,1.021-1.211,1.021-2.173c0-0.537-0.148-1.014-0.449-1.434      c-0.299-0.418-0.739-0.82-1.319-1.207c-0.581-0.387-1.764-1.006-3.55-1.854c-1.673-0.786-2.928-1.542-3.765-2.267      c-0.836-0.725-1.505-1.567-2.004-2.528c-0.5-0.962-0.749-2.085-0.749-3.371c0-2.423,0.82-4.327,2.463-5.714      c1.642-1.385,3.911-2.079,6.809-2.079c1.423,0,2.781,0.17,4.072,0.507c1.294,0.338,2.645,0.812,4.055,1.424l-1.873,4.514      c-1.459-0.6-2.669-1.018-3.623-1.256c-0.955-0.236-1.895-0.355-2.818-0.355c-1.099,0-1.941,0.256-2.529,0.769      c-0.586,0.513-0.879,1.18-0.879,2.003c0,0.513,0.117,0.959,0.354,1.341c0.238,0.38,0.614,0.749,1.134,1.104      c0.52,0.356,1.745,0.996,3.68,1.921c2.561,1.223,4.314,2.449,5.264,3.68C206.944,304.206,207.42,305.713,207.42,307.498z"/>
				<path fill="#ED1C24" d="M222.946,315.104h-5.807v-22.551h-7.436v-4.833h20.678v4.833h-7.436V315.104z"/>
				<path fill="#ED1C24" d="M259.451,301.373c0,4.533-1.123,8.018-3.371,10.451c-2.248,2.436-5.469,3.653-9.665,3.653      c-4.194,0-7.417-1.218-9.664-3.653c-2.247-2.434-3.371-5.93-3.371-10.487c0-4.56,1.126-8.039,3.381-10.442      c2.254-2.404,5.484-3.605,9.692-3.605s7.426,1.211,9.654,3.633C258.337,293.346,259.451,296.829,259.451,301.373z       M239.468,301.373c0,3.061,0.579,5.363,1.74,6.912s2.896,2.322,5.207,2.322c4.633,0,6.95-3.078,6.95-9.234      c0-6.168-2.305-9.252-6.912-9.252c-2.311,0-4.052,0.777-5.226,2.332S239.468,298.314,239.468,301.373z"/>
				<path fill="#ED1C24" d="M284.045,296.26c0,2.947-0.921,5.201-2.764,6.762c-1.842,1.561-4.461,2.341-7.856,2.341h-2.491v9.741      h-5.808V287.72h8.748c3.32,0,5.847,0.715,7.576,2.145S284.045,293.426,284.045,296.26z M270.934,300.605h1.91      c1.785,0,3.12-0.353,4.008-1.059c0.887-0.705,1.329-1.732,1.329-3.08c0-1.361-0.371-2.366-1.113-3.016      c-0.744-0.649-1.908-0.975-3.494-0.975h-2.64V300.605z"/>
				<path fill="#ED1C24" d="M318.096,296.26c0,2.947-0.921,5.201-2.764,6.762c-1.841,1.561-4.461,2.341-7.856,2.341h-2.49v9.741      h-5.808V287.72h8.747c3.32,0,5.847,0.715,7.576,2.145S318.096,293.426,318.096,296.26z M304.985,300.605h1.909      c1.785,0,3.121-0.353,4.008-1.059c0.887-0.705,1.329-1.732,1.329-3.08c0-1.361-0.371-2.366-1.112-3.016      c-0.745-0.649-1.909-0.975-3.495-0.975h-2.639V300.605z"/>
				<path fill="#ED1C24" d="M345.554,287.72v17.719c0,2.022-0.453,3.796-1.358,5.319s-2.213,2.69-3.924,3.502      c-1.71,0.813-3.734,1.218-6.068,1.218c-3.522,0-6.256-0.901-8.204-2.708c-1.947-1.803-2.922-4.271-2.922-7.407V287.72h5.788      v16.763c0,2.111,0.424,3.659,1.273,4.645c0.849,0.988,2.254,1.48,4.215,1.48c1.897,0,3.273-0.496,4.128-1.489      c0.856-0.992,1.285-2.55,1.285-4.673V287.72H345.554z"/>
				<path fill="#ED1C24" d="M376.553,315.104h-7.381l-11.913-20.717h-0.166c0.235,3.66,0.354,6.27,0.354,7.83v12.887h-5.188V287.72      h7.323l11.894,20.509h0.13c-0.187-3.559-0.28-6.074-0.28-7.549v-12.96h5.227V315.104z"/>
				<path fill="#ED1C24" d="M393.839,299.726h10.864v14.196c-1.761,0.575-3.419,0.979-4.973,1.209      c-1.555,0.23-3.144,0.347-4.768,0.347c-4.134,0-7.288-1.215-9.467-3.643c-2.181-2.429-3.269-5.916-3.269-10.462      c0-4.42,1.263-7.866,3.791-10.338c2.529-2.473,6.035-3.71,10.519-3.71c2.81,0,5.519,0.563,8.127,1.687l-1.928,4.645      c-1.999-0.998-4.078-1.498-6.237-1.498c-2.511,0-4.521,0.844-6.031,2.528c-1.511,1.687-2.267,3.952-2.267,6.8      c0,2.973,0.608,5.241,1.827,6.808c1.216,1.567,2.986,2.352,5.31,2.352c1.211,0,2.44-0.126,3.688-0.375v-5.714h-5.188V299.726z"/>
				<path fill="#ED1C24" d="M411.221,315.104V287.72h5.807v22.588h11.106v4.796H411.221z"/>
				<path fill="#ED1C24" d="M432.893,315.104V287.72h5.805v27.384H432.893z"/>
			</g>
			<g>
				<path d="M183.583,368.689c-1.546,0.949-3.106,1.14-4.68,0.574c-1.573-0.567-2.969-1.843-4.187-3.826      c-1.121-1.827-1.77-3.655-1.945-5.483l3.374-2.07c0.194,1.472,0.432,2.673,0.71,3.603c0.282,0.931,0.626,1.729,1.033,2.393      c0.488,0.795,1.017,1.313,1.581,1.553c0.567,0.237,1.15,0.173,1.752-0.196c0.337-0.206,0.576-0.483,0.724-0.831      c0.146-0.349,0.229-0.778,0.249-1.29s-0.049-1.489-0.203-2.932c-0.15-1.349-0.158-2.425-0.027-3.225      c0.132-0.802,0.402-1.543,0.813-2.224c0.41-0.683,1.017-1.27,1.82-1.764c1.517-0.93,3.023-1.148,4.52-0.651      c1.498,0.493,2.802,1.648,3.915,3.46c0.547,0.89,0.962,1.804,1.246,2.742c0.286,0.938,0.507,1.965,0.667,3.083l-3.543,0.562      c-0.186-1.145-0.388-2.062-0.605-2.75c-0.219-0.688-0.506-1.322-0.86-1.899c-0.422-0.688-0.905-1.116-1.45-1.287      c-0.547-0.171-1.077-0.098-1.592,0.219c-0.32,0.197-0.554,0.441-0.701,0.738c-0.147,0.294-0.232,0.671-0.257,1.133      c-0.023,0.46,0.048,1.473,0.213,3.038c0.216,2.071,0.123,3.638-0.283,4.706C185.462,367.127,184.699,368.004,183.583,368.689z"/>
				<path d="M189.465,385.481l2.826-4.125l-4.576-5.723l-4.645,1.85l-2.868-3.587l20.19-7.063l3.253,4.069l-11.313,18.164      L189.465,385.481z M194.448,378.329c2.543-3.758,3.983-5.882,4.322-6.369c0.337-0.487,0.612-0.862,0.824-1.126      c-1.105,0.497-3.91,1.632-8.418,3.405L194.448,378.329z"/>
				<path d="M200.849,397.326l-3.061-2.966l11.521-11.884l-3.918-3.797l2.469-2.547l10.896,10.563l-2.47,2.546l-3.917-3.798      L200.849,397.326z"/>
				<path d="M221.209,399.684l6.395,4.764l-6.225,8.355c-1.287-0.432-2.44-0.923-3.456-1.469c-1.017-0.545-2.003-1.174-2.958-1.884      c-2.434-1.813-3.759-3.911-3.977-6.295c-0.219-2.386,0.671-4.916,2.661-7.591c1.938-2.602,4.192-4.076,6.764-4.424      c2.574-0.348,5.18,0.463,7.818,2.427c1.653,1.233,3.002,2.75,4.046,4.556l-3.172,1.89c-0.738-1.465-1.743-2.67-3.015-3.616      c-1.479-1.101-3.031-1.486-4.658-1.155c-1.63,0.329-3.066,1.333-4.315,3.008c-1.302,1.749-1.939,3.353-1.909,4.809      c0.029,1.456,0.728,2.693,2.096,3.711c0.713,0.532,1.492,0.997,2.336,1.397l2.504-3.362l-3.054-2.274L221.209,399.684z"/>
				<path d="M237.208,422.863l1.008-4.897l-6.435-3.502l-3.568,3.503l-4.031-2.193l15.877-14.334l4.575,2.49l-3.393,21.129      L237.208,422.863z M239.03,414.341c0.89-4.451,1.396-6.967,1.519-7.548c0.123-0.58,0.231-1.032,0.324-1.358      c-0.826,0.886-2.975,3.02-6.442,6.402L239.03,414.341z"/>
				<path d="M258.141,425.662c-0.661,1.688-1.791,2.783-3.388,3.279c-1.598,0.496-3.48,0.318-5.646-0.53      c-1.996-0.781-3.616-1.851-4.857-3.203l1.443-3.686c1.044,1.058,1.956,1.873,2.74,2.447c0.784,0.572,1.539,1.001,2.265,1.285      c0.87,0.341,1.603,0.436,2.198,0.285s1.021-0.553,1.28-1.21c0.143-0.367,0.169-0.733,0.075-1.101      c-0.092-0.366-0.285-0.758-0.578-1.178c-0.294-0.421-0.937-1.16-1.929-2.219c-0.934-0.986-1.588-1.837-1.966-2.557      s-0.609-1.474-0.693-2.265c-0.083-0.791,0.047-1.626,0.393-2.505c0.648-1.655,1.719-2.736,3.211-3.243      c1.494-0.509,3.23-0.373,5.21,0.402c0.973,0.381,1.855,0.859,2.649,1.437c0.792,0.576,1.589,1.263,2.388,2.06l-2.488,2.582      c-0.838-0.801-1.551-1.41-2.14-1.829c-0.589-0.418-1.2-0.751-1.831-0.996c-0.752-0.296-1.396-0.347-1.934-0.153      s-0.918,0.57-1.139,1.133c-0.137,0.352-0.176,0.688-0.115,1.012c0.06,0.324,0.22,0.677,0.479,1.059      c0.261,0.382,0.926,1.147,2.002,2.297c1.42,1.522,2.29,2.83,2.609,3.924C258.697,423.285,258.619,424.442,258.141,425.662z"/>
				<path d="M281.341,431.491c-0.377,1.774-1.314,3.036-2.81,3.787c-1.494,0.75-3.381,0.884-5.655,0.398      c-2.099-0.445-3.87-1.235-5.316-2.368l0.825-3.871c1.2,0.873,2.233,1.53,3.102,1.966c0.866,0.438,1.683,0.738,2.443,0.899      c0.914,0.196,1.653,0.17,2.216-0.076c0.563-0.246,0.919-0.713,1.064-1.403c0.082-0.386,0.048-0.752-0.104-1.098      c-0.15-0.346-0.403-0.702-0.761-1.068c-0.359-0.366-1.114-0.991-2.267-1.873c-1.08-0.821-1.866-1.555-2.356-2.203      c-0.488-0.647-0.84-1.354-1.052-2.121c-0.212-0.767-0.218-1.611-0.022-2.534c0.369-1.739,1.25-2.98,2.64-3.725      c1.391-0.744,3.126-0.896,5.206-0.452c1.021,0.217,1.971,0.545,2.847,0.986c0.876,0.438,1.774,0.985,2.693,1.64L282,421.329      c-0.958-0.653-1.761-1.138-2.412-1.454c-0.648-0.316-1.305-0.545-1.967-0.686c-0.789-0.169-1.433-0.112-1.935,0.164      c-0.498,0.278-0.812,0.713-0.937,1.306c-0.079,0.367-0.062,0.705,0.05,1.015c0.112,0.31,0.327,0.631,0.646,0.966      c0.317,0.336,1.102,0.982,2.349,1.94c1.65,1.271,2.724,2.419,3.217,3.447C281.503,429.055,281.613,430.21,281.341,431.491z"/>
				<path d="M297.56,438.788l-1.045-4.89l-7.301-0.623l-1.858,4.642l-4.574-0.391l8.784-19.503l5.191,0.444l5.378,20.712      L297.56,438.788z M295.805,430.251c-0.974-4.434-1.52-6.94-1.64-7.522c-0.121-0.579-0.204-1.037-0.249-1.371      c-0.4,1.143-1.511,3.958-3.329,8.447L295.805,430.251z"/>
				<path d="M305.303,418.993l6.247-0.305c2.848-0.138,4.934,0.166,6.259,0.913c1.327,0.747,2.03,2.004,2.118,3.771      c0.058,1.2-0.176,2.196-0.7,2.994c-0.526,0.796-1.252,1.295-2.179,1.496l0.007,0.136c1.287,0.223,2.231,0.71,2.832,1.459      c0.602,0.751,0.934,1.771,0.994,3.063c0.09,1.83-0.501,3.291-1.774,4.381c-1.271,1.09-3.044,1.689-5.313,1.801l-7.511,0.366      L305.303,418.993z M309.947,426.736l2.472-0.12c1.153-0.058,1.979-0.275,2.479-0.659c0.5-0.382,0.729-0.985,0.689-1.808      c-0.038-0.771-0.347-1.308-0.925-1.614c-0.579-0.306-1.478-0.43-2.695-0.37l-2.237,0.108L309.947,426.736z M310.111,430.114      l0.256,5.231l2.773-0.137c1.172-0.057,2.026-0.323,2.563-0.799s0.782-1.177,0.737-2.1c-0.081-1.667-1.313-2.442-3.692-2.326      L310.111,430.114z"/>
				<path d="M338.064,435.595l-11.403,1.979l-3.438-19.802l11.403-1.979l0.599,3.44l-7.206,1.25l0.755,4.348l6.704-1.163      l0.597,3.439l-6.703,1.163l0.885,5.106l7.206-1.251L338.064,435.595z"/>
				<path d="M345.479,425.686l2.242,7.377l-4.078,1.241l-5.844-19.229l5.604-1.702c2.613-0.795,4.689-0.907,6.234-0.338      c1.542,0.571,2.607,1.825,3.196,3.763c0.345,1.131,0.338,2.232-0.017,3.303c-0.354,1.07-1.025,2.029-2.014,2.874      c4.208,3.444,6.941,5.664,8.202,6.66l-4.523,1.375l-6.833-5.983L345.479,425.686z M344.471,422.37l1.314-0.4      c1.289-0.392,2.176-0.895,2.659-1.511c0.482-0.616,0.584-1.384,0.305-2.307c-0.277-0.911-0.787-1.465-1.532-1.659      c-0.744-0.196-1.773-0.093-3.089,0.307l-1.236,0.376L344.471,422.37z"/>
				<path d="M376.096,406.156c0.993,1.922,1.152,3.701,0.479,5.34c-0.674,1.638-2.119,3.029-4.333,4.175l-1.623,0.84l3.284,6.351      l-3.785,1.957l-9.234-17.85l5.702-2.95c2.164-1.119,4.052-1.506,5.662-1.156C373.856,403.211,375.14,404.309,376.096,406.156z       M369.015,413.41l1.245-0.644c1.164-0.603,1.915-1.283,2.256-2.042s0.283-1.579-0.172-2.457c-0.46-0.886-1.041-1.417-1.744-1.59      c-0.703-0.172-1.571,0.009-2.605,0.543l-1.721,0.891L369.015,413.41z"/>
				<path d="M388.915,389.748l7.515,10.613c0.857,1.211,1.338,2.466,1.441,3.762c0.104,1.297-0.183,2.552-0.864,3.761      c-0.68,1.213-1.72,2.314-3.118,3.304c-2.108,1.494-4.131,2.113-6.063,1.858c-1.932-0.254-3.563-1.321-4.891-3.197l-7.483-10.569      l3.467-2.454l7.109,10.041c0.895,1.265,1.806,2.013,2.732,2.243c0.927,0.229,1.978-0.07,3.151-0.902      c1.138-0.805,1.751-1.686,1.844-2.643c0.091-0.958-0.314-2.071-1.214-3.344l-7.095-10.018L388.915,389.748z"/>
				<path d="M418.618,389.342l-3.88,3.779l-16.871-4.786l-0.089,0.087c1.999,1.802,3.397,3.112,4.197,3.933l6.601,6.772      l-2.727,2.658l-14.027-14.393l3.85-3.75l16.757,4.686l0.069-0.066c-1.921-1.774-3.26-3.051-4.014-3.824l-6.642-6.812      l2.748-2.676L418.618,389.342z"/>
				<path d="M418.718,371.167l4.795-6.37l8.326,6.265c-0.44,1.287-0.937,2.436-1.487,3.45c-0.55,1.014-1.184,1.995-1.9,2.947      c-1.823,2.425-3.929,3.738-6.314,3.945c-2.386,0.205-4.91-0.695-7.576-2.699c-2.592-1.952-4.055-4.215-4.389-6.787      c-0.335-2.573,0.487-5.176,2.466-7.805c1.239-1.646,2.766-2.988,4.575-4.022l1.872,3.18c-1.467,0.732-2.677,1.73-3.631,2.998      c-1.107,1.472-1.5,3.021-1.179,4.651c0.323,1.631,1.318,3.074,2.987,4.33c1.743,1.312,3.343,1.956,4.799,1.934      c1.456-0.023,2.696-0.715,3.722-2.076c0.534-0.711,1.005-1.487,1.408-2.329l-3.349-2.521l-2.291,3.043L418.718,371.167z"/>
				<path d="M435.9,366.151l-17.479-9.917l2.103-3.705l14.42,8.18l4.021-7.091l3.061,1.737L435.9,366.151z"/>
				<path d="M443.92,351.153l-18.3-8.304l1.76-3.882l18.302,8.306L443.92,351.153z"/>
			</g>
		</g>
	</g>
</g>
<g id="Layer_13">
</g>
<g id="Layer_14">
</g>
<g id="Layer_15">
</g>
<g id="Layer_16">
</g>
<g id="Layer_17">
</g>
<g id="Layer_18">
</g>
<g id="Layer_19">
</g>
<g id="Layer_20">
</g>
</svg>