<?xml version="1.0" encoding="UTF-8"?>
<!-- Generator: Adobe Illustrator 16.0.0, SVG Export Plug-In . SVG Version: 6.00 Build 0)  -->
<!DOCTYPE svg PUBLIC "-//W3C//DTD SVG 1.1//EN" "http://www.w3.org/Graphics/SVG/1.1/DTD/svg11.dtd">
<svg version="1.1" xmlns="http://www.w3.org/2000/svg" xmlns:xlink="http://www.w3.org/1999/xlink" x="0px" y="0px" width="600px" height="600px" viewBox="0 0 600 600" enable-background="new 0 0 600 600" xml:space="preserve">
<g id="Layer_1">
	<g>
		<g>
			<polygon fill="#ED1C24" points="100,244.811 135.683,380.612 207.528,358.604 205.454,234.429    "/>
			<polygon fill="#C41E2E" points="186.346,219.499 100,244.811 188.756,236.071    "/>
			<g>
				<path fill="#FFFFFF" d="M152.587,289.873c0.073,0.579,0.165,1.052,0.271,1.434c0.143,0.632,0.702,1.932,1.673,3.898      c1.288,2.112,3.205,3.991,5.75,5.62c2.216,1.412,4.677,1.94,7.386,1.596c2.118-0.273,4.091-0.989,5.921-2.141      c0.938-0.585,2.101-1.554,3.482-2.917l2.641-2.504c0.366-0.438,1.039-0.727,2.043-0.856l0.885-0.115      c2.174,0.182,3.425,1.468,3.731,3.863c0.217,1.677-0.599,3.52-2.433,5.529c-2.088,2.37-4.513,4.257-7.263,5.664      c-0.885,0.575-2.251,1.304-4.114,2.207l-4.594,0.59c-4.175,0.537-8.507-0.545-12.986-3.253c-4.476-2.712-7.711-6.006-9.708-9.89      c-1.671-3.197-2.776-6.934-3.326-11.2c-0.773-6.01,0.198-11.716,2.916-17.125c2.149-4.222,5.145-7.423,8.99-9.627      c2.903-1.624,5.891-2.598,8.962-2.93c4.96-0.506,9.509,0.617,13.626,3.374c4.454,2.972,7.429,6.103,8.934,9.393      c1.675,3.723,2.635,6.558,2.887,8.497c0.301,2.327,0.18,3.985-0.346,4.968c-0.531,0.988-1.828,1.617-3.885,1.881      L152.587,289.873z M179.103,278.973l-0.813-2.164c-1.164-2.999-2.948-5.561-5.346-7.689c-2.399-2.118-5.224-3.264-8.479-3.439      c-1.084-0.056-2.929,0.48-5.534,1.602c-2.1,0.926-4.198,3.432-6.307,7.511c-0.286,0.563-0.656,2.386-1.095,5.458l-0.331,2.313      L179.103,278.973z"/>
			</g>
		</g>
		<g>
			<path fill="#808184" d="M219.186,233.107c0-1.743,0.621-3.315,1.865-4.724c1.241-1.161,2.816-1.741,4.723-1.741     c1.74,0,3.252,0.643,4.539,1.928c1.283,1.286,1.925,2.794,1.925,4.537v84.78c0,1.825-0.642,3.42-1.925,4.787     c-1.287,1.367-2.84,2.053-4.663,2.053c-1.74,0-3.255-0.686-4.538-2.053c-1.286-1.367-1.926-2.923-1.926-4.664V233.107z"/>
			<path fill="#808184" d="M243.054,233.363c0-1.907,0.62-3.464,1.864-4.668c1.242-1.203,2.817-1.804,4.724-1.804     c1.82,0,3.336,0.62,4.538,1.864c1.199,1.242,1.802,2.779,1.802,4.599v30.458c3.978-4.557,9.033-7.087,15.165-7.583     c1.077-0.08,2.116-0.125,3.109-0.125c3.064,0,4.95,0.045,5.657,0.125c0.701,0.084,1.262,0.123,1.678,0.123     c6.381,1.08,11.291,3.791,14.729,8.143c3.438,4.351,5.161,9.802,5.161,16.349v37.417c0,1.825-0.643,3.379-1.93,4.662     c-1.283,1.283-2.84,1.926-4.659,1.926c-1.824,0-3.358-0.62-4.599-1.864c-1.244-1.241-1.865-2.775-1.865-4.599v-36.549     c0-3.894-1.351-7.312-4.042-10.254c-2.691-2.943-7.397-4.413-14.108-4.413c-3.977,0-7.357,1.411-10.132,4.233     c-2.775,2.826-4.164,6.23-4.164,10.217v36.877c0,1.824-0.603,3.343-1.802,4.545c-1.202,1.204-2.718,1.806-4.538,1.806     c-1.823,0-3.379-0.623-4.662-1.864c-1.286-1.244-1.927-2.781-1.927-4.607V233.363z"/>
			<path fill="#808184" d="M312.41,233.098c0-1.904,0.621-3.455,1.864-4.657c1.243-1.2,2.819-1.799,4.727-1.799     c1.819,0,3.356,0.641,4.599,1.922c1.244,1.284,1.864,2.833,1.864,4.65v46.262l24.116-20.887c1.99-1.74,3.856-2.611,5.596-2.611     c1.571,0,2.962,0.625,4.165,1.866c1.198,1.244,1.8,2.65,1.8,4.223c0,1.99-0.952,3.728-2.855,5.219l-22.729,18.262l27.452,28.234     c1.157,1.491,1.739,3.068,1.739,4.727s-0.582,3.088-1.742,4.288c-1.161,1.202-2.569,1.806-4.226,1.806     c-2.157,0-4.145-0.995-5.968-2.984l-27.348-29.587v25.98c0,1.825-0.627,3.382-1.882,4.664c-1.255,1.283-2.803,1.928-4.644,1.928     c-1.844,0-3.391-0.645-4.646-1.925c-1.254-1.28-1.882-2.837-1.882-4.657V233.098z"/>
			<path fill="#808184" d="M439.944,290.664c0,9.578-3.405,17.755-10.213,24.525c-6.814,6.772-15.035,10.157-24.668,10.157     c-1.247,0-3.739-0.293-7.478-0.872c-5.979-0.912-10.837-3.604-14.576-8.079v28.343c0,1.823-0.621,3.356-1.864,4.603     c-1.241,1.241-2.775,1.86-4.599,1.86c-1.74,0-3.256-0.643-4.539-1.926c-1.285-1.286-1.926-2.798-1.926-4.537V319.63     c0-0.416,0-0.872,0-1.37v-55.815c0-1.742,0.602-3.25,1.805-4.538c1.199-1.287,2.672-1.929,4.411-1.929h0.124h0.125     c1.739,0,3.211,0.479,4.41,1.432c1.203,0.954,1.805,2.219,1.805,3.791v3.357c0.498-0.403,0.994-0.766,1.493-1.088     c4.306-4.99,10.109-7.491,17.403-7.491c0.58,0,1.158,0,1.74,0c0.578,0,1.16,0,1.74,0c9.61,0,17.818,3.388,24.614,10.161     C436.547,272.908,439.944,281.084,439.944,290.664z M427.266,289.856c0-6.364-2.063-11.755-6.188-16.179     c-4.126-4.42-9.313-6.634-15.563-6.634c-6.504,0-11.922,2.13-16.252,6.387c-4.336,4.258-6.501,9.65-6.501,16.179     c0,7.273,2.165,13.162,6.501,17.668c4.33,4.503,9.748,6.754,16.252,6.754c6.166,0,11.333-2.395,15.502-7.188     C425.181,302.051,427.266,296.387,427.266,289.856z"/>
			<path fill="#808184" d="M495.592,266.05c-3.055-5.387-7.272-7.594-11.746-9.076c-6.097-2.018-11.358-2.018-12.103-2.018     c-0.743,0-4.966,0.407-11.604,2.018c-4.58,1.11-7.76,3.689-10.818,9.076c-2.729,4.723-3.32,9.653-3.32,14.792v37.417     c0,1.825-0.146,3.379,1.135,4.662c1.285,1.283,2.447,1.926,4.271,1.926s2.42-0.623,3.662-1.867     c1.244-1.244,0.933-2.781,0.933-4.608v-36.628c0-4.069,2.125-7.536,4.9-10.402c2.779-2.864,6.563-4.298,10.623-4.298     c4.06,0,9.93,1.434,12.708,4.298c2.775,2.867,3.769,6.333,3.769,10.402v36.628c0,1.827,1.203,3.364,2.447,4.608     c1.242,1.244,2.043,1.867,3.863,1.867c1.826,0,2.016-0.643,3.301-1.926c1.284-1.283,2.389-2.837,2.389-4.662v-37.417     C500,275.704,498.319,270.773,495.592,266.05z"/>
		</g>
		<g>
			<path fill="#ED1C24" d="M229.854,375.878l3.507-16.812h-6.226l0.454-2.161h14.933l-0.453,2.161h-6.17l-3.508,16.812H229.854z"/>
			<path fill="#ED1C24" d="M238.937,375.878l2.873-13.745h2.071l-0.583,2.811c0.708-1.063,1.4-1.847,2.077-2.355     c0.677-0.51,1.37-0.768,2.077-0.768c0.465,0,1.041,0.171,1.721,0.508l-0.959,2.174c-0.402-0.294-0.849-0.439-1.329-0.439     c-0.822,0-1.663,0.457-2.526,1.37c-0.862,0.916-1.539,2.559-2.03,4.933l-1.164,5.513H238.937z"/>
			<path fill="#ED1C24" d="M257.032,374.167c-0.815,0.7-1.593,1.212-2.345,1.534c-0.75,0.323-1.554,0.487-2.406,0.487     c-1.268,0-2.29-0.372-3.067-1.122c-0.777-0.745-1.166-1.7-1.166-2.864c0-0.768,0.175-1.447,0.527-2.038     c0.346-0.592,0.812-1.065,1.388-1.425c0.579-0.355,1.287-0.615,2.125-0.768c0.526-0.106,1.526-0.187,2.996-0.249     c1.469-0.057,2.524-0.213,3.165-0.465c0.179-0.637,0.27-1.168,0.27-1.592c0-0.542-0.199-0.971-0.597-1.28     c-0.542-0.431-1.336-0.648-2.38-0.648c-0.982,0-1.786,0.219-2.413,0.655c-0.627,0.436-1.081,1.054-1.363,1.855l-2.37-0.206     c0.481-1.363,1.248-2.408,2.296-3.132c1.05-0.724,2.372-1.09,3.967-1.09c1.698,0,3.045,0.408,4.037,1.218     c0.76,0.605,1.137,1.39,1.137,2.354c0,0.735-0.104,1.584-0.321,2.552l-0.763,3.417c-0.243,1.087-0.362,1.973-0.362,2.653     c0,0.432,0.095,1.052,0.285,1.863h-2.37C257.172,375.429,257.082,374.857,257.032,374.167z M257.897,368.915     c-0.328,0.128-0.679,0.229-1.056,0.298c-0.375,0.07-1.001,0.141-1.882,0.221c-1.364,0.119-2.324,0.271-2.887,0.459     c-0.559,0.186-0.982,0.481-1.266,0.884c-0.286,0.407-0.428,0.855-0.428,1.349c0,0.653,0.228,1.194,0.679,1.616     c0.454,0.424,1.099,0.635,1.935,0.635c0.777,0,1.523-0.205,2.242-0.613c0.715-0.411,1.28-0.984,1.694-1.716     C257.339,371.315,257.664,370.27,257.897,368.915z"/>
			<path fill="#ED1C24" d="M262.504,375.878l2.873-13.745h2.124l-0.506,2.396c0.924-0.941,1.786-1.627,2.587-2.058     s1.624-0.65,2.458-0.65c1.114,0,1.989,0.304,2.624,0.909c0.635,0.604,0.949,1.409,0.949,2.419c0,0.509-0.111,1.312-0.335,2.408     l-1.747,8.321h-2.341l1.823-8.711c0.181-0.844,0.271-1.471,0.271-1.876c0-0.457-0.157-0.828-0.472-1.114     c-0.315-0.282-0.772-0.425-1.367-0.425c-1.198,0-2.267,0.432-3.202,1.294c-0.936,0.862-1.626,2.341-2.065,4.437l-1.331,6.396     H262.504z"/>
			<path fill="#ED1C24" d="M277.463,371.179l2.346-0.143c0,0.674,0.102,1.248,0.308,1.724c0.208,0.474,0.589,0.863,1.147,1.163     c0.554,0.303,1.205,0.453,1.945,0.453c1.035,0,1.813-0.209,2.331-0.62c0.517-0.415,0.777-0.902,0.777-1.464     c0-0.404-0.157-0.789-0.466-1.151c-0.32-0.364-1.099-0.809-2.338-1.341c-1.235-0.529-2.029-0.902-2.375-1.118     c-0.576-0.354-1.014-0.769-1.304-1.247c-0.296-0.48-0.44-1.031-0.44-1.651c0-1.088,0.431-2.019,1.294-2.795     c0.862-0.777,2.071-1.168,3.622-1.168c1.726,0,3.04,0.403,3.942,1.199c0.902,0.799,1.368,1.848,1.403,3.151l-2.288,0.156     c-0.037-0.828-0.33-1.484-0.883-1.967c-0.551-0.483-1.33-0.727-2.34-0.727c-0.811,0-1.442,0.187-1.889,0.558     c-0.45,0.369-0.675,0.77-0.675,1.201c0,0.433,0.195,0.813,0.585,1.142c0.258,0.224,0.927,0.568,2.004,1.034     c1.795,0.777,2.926,1.388,3.392,1.84c0.743,0.716,1.112,1.587,1.112,2.613c0,0.682-0.209,1.351-0.627,2.004     c-0.419,0.658-1.057,1.182-1.914,1.573c-0.861,0.393-1.872,0.59-3.037,0.59c-1.587,0-2.938-0.393-4.05-1.177     C277.931,374.226,277.403,372.947,277.463,371.179z"/>
			<path fill="#ED1C24" d="M289.343,381.143l3.975-19.01h2.16l-0.4,1.916c0.802-0.838,1.521-1.417,2.155-1.739     c0.634-0.325,1.304-0.489,2.012-0.489c1.312,0,2.397,0.481,3.259,1.434c0.864,0.954,1.296,2.317,1.296,4.095     c0,1.433-0.236,2.737-0.714,3.916c-0.474,1.177-1.054,2.125-1.746,2.84c-0.689,0.716-1.388,1.241-2.095,1.579     c-0.708,0.335-1.433,0.505-2.174,0.505c-1.647,0-2.925-0.836-3.83-2.51l-1.554,7.464H289.343z M293.977,370.26     c0,1.027,0.072,1.74,0.22,2.134c0.216,0.563,0.568,1.017,1.062,1.362c0.493,0.345,1.06,0.519,1.709,0.519     c1.345,0,2.433-0.759,3.259-2.272c0.829-1.515,1.241-3.063,1.241-4.641c0-1.163-0.278-2.063-0.834-2.696     c-0.555-0.636-1.248-0.953-2.077-0.953c-0.593,0-1.147,0.159-1.656,0.474c-0.51,0.314-0.98,0.785-1.418,1.408     c-0.434,0.626-0.795,1.393-1.081,2.299C294.119,368.798,293.977,369.588,293.977,370.26z"/>
			<path fill="#ED1C24" d="M314.502,374.167c-0.813,0.7-1.594,1.212-2.345,1.534c-0.748,0.323-1.554,0.487-2.405,0.487     c-1.268,0-2.291-0.372-3.066-1.122c-0.777-0.745-1.167-1.7-1.167-2.864c0-0.768,0.174-1.447,0.526-2.038     c0.348-0.592,0.813-1.065,1.388-1.425c0.58-0.355,1.287-0.615,2.125-0.768c0.526-0.106,1.525-0.187,2.995-0.249     c1.47-0.057,2.524-0.213,3.165-0.465c0.181-0.637,0.271-1.168,0.271-1.592c0-0.542-0.198-0.971-0.597-1.28     c-0.543-0.431-1.337-0.648-2.38-0.648c-0.982,0-1.788,0.219-2.413,0.655c-0.627,0.436-1.08,1.054-1.365,1.855l-2.367-0.206     c0.48-1.363,1.245-2.408,2.295-3.132c1.051-0.724,2.372-1.09,3.966-1.09c1.7,0,3.047,0.408,4.037,1.218     c0.761,0.605,1.14,1.39,1.14,2.354c0,0.735-0.104,1.584-0.324,2.552l-0.762,3.417c-0.242,1.087-0.361,1.973-0.361,2.653     c0,0.432,0.095,1.052,0.282,1.863h-2.367C314.645,375.429,314.553,374.857,314.502,374.167z M315.366,368.915     c-0.327,0.128-0.677,0.229-1.054,0.298c-0.376,0.07-1.003,0.141-1.882,0.221c-1.363,0.119-2.325,0.271-2.887,0.459     c-0.561,0.186-0.983,0.481-1.266,0.884c-0.288,0.407-0.43,0.855-0.43,1.349c0,0.653,0.229,1.194,0.678,1.616     c0.455,0.424,1.101,0.635,1.936,0.635c0.777,0,1.523-0.205,2.241-0.613c0.715-0.411,1.281-0.984,1.697-1.716     C314.811,371.315,315.133,370.27,315.366,368.915z"/>
			<path fill="#ED1C24" d="M319.974,375.878l2.874-13.745h2.07l-0.582,2.811c0.707-1.063,1.401-1.847,2.077-2.355     c0.677-0.51,1.369-0.768,2.077-0.768c0.465,0,1.041,0.171,1.72,0.508l-0.957,2.174c-0.403-0.294-0.85-0.439-1.331-0.439     c-0.822,0-1.662,0.457-2.524,1.37c-0.863,0.916-1.54,2.559-2.032,4.933l-1.163,5.513H319.974z"/>
			<path fill="#ED1C24" d="M338.069,374.167c-0.813,0.7-1.593,1.212-2.345,1.534c-0.747,0.323-1.553,0.487-2.404,0.487     c-1.271,0-2.292-0.372-3.069-1.122c-0.775-0.745-1.165-1.7-1.165-2.864c0-0.768,0.174-1.447,0.526-2.038     c0.348-0.592,0.813-1.065,1.388-1.425c0.58-0.355,1.287-0.615,2.126-0.768c0.525-0.106,1.524-0.187,2.995-0.249     c1.468-0.057,2.524-0.213,3.164-0.465c0.182-0.637,0.27-1.168,0.27-1.592c0-0.542-0.195-0.971-0.596-1.28     c-0.541-0.431-1.335-0.648-2.379-0.648c-0.982,0-1.787,0.219-2.414,0.655c-0.626,0.436-1.081,1.054-1.363,1.855l-2.371-0.206     c0.484-1.363,1.249-2.408,2.297-3.132c1.051-0.724,2.374-1.09,3.968-1.09c1.697,0,3.046,0.408,4.036,1.218     c0.761,0.605,1.14,1.39,1.14,2.354c0,0.735-0.107,1.584-0.323,2.552l-0.763,3.417c-0.242,1.087-0.363,1.973-0.363,2.653     c0,0.432,0.097,1.052,0.285,1.863h-2.369C338.212,375.429,338.118,374.857,338.069,374.167z M338.934,368.915     c-0.327,0.128-0.679,0.229-1.054,0.298c-0.375,0.07-1.003,0.141-1.882,0.221c-1.365,0.119-2.324,0.271-2.886,0.459     c-0.561,0.186-0.983,0.481-1.269,0.884c-0.286,0.407-0.428,0.855-0.428,1.349c0,0.653,0.229,1.194,0.679,1.616     c0.454,0.424,1.1,0.635,1.935,0.635c0.777,0,1.523-0.205,2.241-0.613c0.716-0.411,1.28-0.984,1.695-1.716     C338.378,371.315,338.7,370.27,338.934,368.915z"/>
			<path fill="#ED1C24" d="M343.542,375.878l2.873-13.745h2.124l-0.507,2.396c0.924-0.941,1.788-1.627,2.59-2.058     s1.622-0.65,2.458-0.65c1.112,0,1.985,0.304,2.62,0.909c0.636,0.604,0.95,1.409,0.95,2.419c0,0.509-0.112,1.312-0.334,2.408     l-1.748,8.321h-2.342l1.823-8.711c0.181-0.844,0.273-1.471,0.273-1.876c0-0.457-0.159-0.828-0.474-1.114     c-0.313-0.282-0.77-0.425-1.366-0.425c-1.198,0-2.267,0.432-3.202,1.294s-1.625,2.341-2.064,4.437l-1.332,6.396H343.542z"/>
			<path fill="#ED1C24" d="M365.557,375.878l2.872-13.745h2.341l-2.872,13.745H365.557z M368.972,359.558l0.558-2.652h2.329     l-0.558,2.652H368.972z"/>
			<path fill="#ED1C24" d="M377.008,373.976l-0.39,1.915c-0.559,0.146-1.106,0.221-1.632,0.221c-0.928,0-1.671-0.228-2.224-0.688     c-0.414-0.346-0.621-0.815-0.621-1.408c0-0.304,0.11-0.997,0.334-2.085l1.67-7.982h-1.851l0.376-1.814h1.851l0.714-3.377     l2.678-1.618l-1.05,4.995h2.305l-0.391,1.814h-2.287l-1.592,7.595c-0.201,0.966-0.299,1.544-0.299,1.735     c0,0.276,0.082,0.487,0.24,0.632c0.158,0.146,0.42,0.22,0.782,0.22C376.14,374.129,376.603,374.079,377.008,373.976z"/>
			<path fill="#ED1C24" d="M388.28,373.391c-1.648,1.865-3.336,2.798-5.062,2.798c-1.061,0-1.917-0.305-2.569-0.912     c-0.651-0.61-0.977-1.354-0.977-2.232c0-0.581,0.146-1.57,0.439-2.977l1.656-7.935h2.344l-1.84,8.786     c-0.154,0.735-0.231,1.304-0.231,1.71c0,0.518,0.156,0.921,0.471,1.211c0.316,0.289,0.78,0.435,1.391,0.435     c0.658,0,1.299-0.163,1.924-0.479c0.624-0.32,1.165-0.751,1.618-1.295c0.449-0.546,0.821-1.185,1.104-1.93     c0.19-0.472,0.41-1.308,0.66-2.495l1.243-5.942h2.343l-2.873,13.745h-2.16L388.28,373.391z"/>
			<path fill="#ED1C24" d="M401.286,375.878l3.96-18.973h3.118l1.916,12.293c0.25,1.615,0.414,3.163,0.491,4.646     c0.526-1.278,1.406-3.007,2.64-5.188l6.653-11.751h3.17l-3.961,18.973h-2.496l1.979-9.229c0.458-2.129,1.113-4.521,1.967-7.167     c-0.542,1.232-1.216,2.561-2.018,3.984l-7.067,12.412h-2.446l-1.903-12.166c-0.172-1.114-0.295-2.411-0.373-3.894     c-0.216,1.664-0.429,2.984-0.635,3.958l-2.524,12.102H401.286z"/>
			<path fill="#ED1C24" d="M432.464,373.391c-1.648,1.865-3.335,2.798-5.062,2.798c-1.06,0-1.917-0.305-2.568-0.912     c-0.652-0.61-0.979-1.354-0.979-2.232c0-0.581,0.148-1.57,0.439-2.977l1.657-7.935h2.344l-1.84,8.786     c-0.153,0.735-0.231,1.304-0.231,1.71c0,0.518,0.156,0.921,0.471,1.211c0.318,0.289,0.78,0.435,1.391,0.435     c0.658,0,1.298-0.163,1.924-0.479c0.624-0.32,1.165-0.751,1.619-1.295c0.451-0.546,0.82-1.185,1.104-1.93     c0.189-0.472,0.409-1.308,0.66-2.495l1.243-5.942h2.343l-2.873,13.745h-2.16L432.464,373.391z"/>
			<path fill="#ED1C24" d="M447.086,373.884c-1.34,1.535-2.734,2.305-4.195,2.305c-1.304,0-2.385-0.481-3.253-1.444     c-0.866-0.96-1.301-2.357-1.301-4.187c0-1.674,0.342-3.202,1.03-4.588c0.686-1.384,1.542-2.421,2.575-3.111     c1.029-0.691,2.063-1.038,3.099-1.038c1.708,0,2.998,0.826,3.869,2.475l1.553-7.39h2.331l-3.963,18.973h-2.158L447.086,373.884z      M440.667,370.118c0,0.957,0.094,1.714,0.284,2.265c0.189,0.551,0.515,1.011,0.971,1.38c0.456,0.366,1.004,0.548,1.643,0.548     c1.063,0,2.023-0.552,2.889-1.657c1.153-1.463,1.732-3.276,1.732-5.434c0-1.087-0.283-1.938-0.854-2.551     c-0.571-0.611-1.286-0.917-2.149-0.917c-0.56,0-1.07,0.125-1.534,0.375c-0.458,0.251-0.917,0.674-1.369,1.274     c-0.454,0.599-0.834,1.362-1.147,2.283C440.822,368.607,440.667,369.419,440.667,370.118z"/>
			<path fill="#ED1C24" d="M461.826,374.167c-0.813,0.7-1.593,1.212-2.343,1.534c-0.749,0.323-1.555,0.487-2.406,0.487     c-1.271,0-2.292-0.372-3.067-1.122c-0.777-0.745-1.166-1.7-1.166-2.864c0-0.768,0.174-1.447,0.525-2.038     c0.348-0.592,0.813-1.065,1.389-1.425c0.58-0.355,1.286-0.615,2.125-0.768c0.526-0.106,1.524-0.187,2.994-0.249     c1.471-0.057,2.525-0.213,3.165-0.465c0.182-0.637,0.271-1.168,0.271-1.592c0-0.542-0.197-0.971-0.596-1.28     c-0.543-0.431-1.338-0.648-2.381-0.648c-0.982,0-1.787,0.219-2.414,0.655c-0.625,0.436-1.078,1.054-1.364,1.855l-2.367-0.206     c0.481-1.363,1.245-2.408,2.295-3.132c1.051-0.724,2.373-1.09,3.967-1.09c1.698,0,3.046,0.408,4.037,1.218     c0.76,0.605,1.14,1.39,1.14,2.354c0,0.735-0.105,1.584-0.325,2.552l-0.762,3.417c-0.242,1.087-0.361,1.973-0.361,2.653     c0,0.432,0.095,1.052,0.283,1.863h-2.367C461.969,375.429,461.876,374.857,461.826,374.167z M462.691,368.915     c-0.327,0.128-0.678,0.229-1.054,0.298c-0.377,0.07-1.003,0.141-1.882,0.221c-1.364,0.119-2.325,0.271-2.887,0.459     c-0.561,0.186-0.983,0.481-1.268,0.884c-0.287,0.407-0.428,0.855-0.428,1.349c0,0.653,0.228,1.194,0.678,1.616     c0.453,0.424,1.101,0.635,1.936,0.635c0.776,0,1.523-0.205,2.24-0.613c0.716-0.411,1.281-0.984,1.696-1.716     C462.136,371.315,462.458,370.27,462.691,368.915z"/>
			<path fill="#ED1C24" d="M467.299,375.878l3.96-18.973h2.343l-1.514,7.286c0.872-0.848,1.685-1.451,2.432-1.818     c0.752-0.366,1.521-0.553,2.317-0.553c1.138,0,2.023,0.303,2.652,0.9c0.631,0.603,0.945,1.393,0.945,2.377     c0,0.483-0.138,1.37-0.414,2.665l-1.695,8.115h-2.34l1.744-8.321c0.251-1.208,0.376-1.969,0.376-2.278     c0-0.45-0.156-0.815-0.465-1.102c-0.313-0.282-0.759-0.425-1.347-0.425c-0.848,0-1.65,0.223-2.421,0.664     c-0.767,0.445-1.369,1.056-1.806,1.827c-0.435,0.771-0.836,2.016-1.195,3.731l-1.229,5.903H467.299z"/>
			<path fill="#ED1C24" d="M482.648,375.878l0.557-2.654h2.639l-0.558,2.654H482.648z M484.124,371.09l1.438-10.304l0.812-3.881     h2.838l-0.885,4.207l-2.74,9.978H484.124z"/>
		</g>
	</g>
</g>
<g id="Layer_2">
</g>
<g id="Layer_3">
</g>
<g id="Layer_4">
</g>
<g id="Layer_5">
</g>
<g id="Layer_6">
</g>
<g id="Layer_7">
</g>
<g id="Layer_8">
</g>
<g id="Layer_9">
</g>
<g id="Layer_10">
</g>
<g id="Layer_11">
</g>
<g id="Layer_12">
</g>
<g id="Layer_13">
</g>
<g id="Layer_14">
</g>
<g id="Layer_15">
</g>
<g id="Layer_16">
</g>
<g id="Layer_17">
</g>
<g id="Layer_18">
</g>
<g id="Layer_19">
</g>
<g id="Layer_20">
</g>
</svg>