<?xml version="1.0" encoding="UTF-8"?>
<!-- Generator: Adobe Illustrator 16.0.0, SVG Export Plug-In . SVG Version: 6.00 Build 0)  -->
<!DOCTYPE svg PUBLIC "-//W3C//DTD SVG 1.1//EN" "http://www.w3.org/Graphics/SVG/1.1/DTD/svg11.dtd">
<svg version="1.1" xmlns="http://www.w3.org/2000/svg" xmlns:xlink="http://www.w3.org/1999/xlink" x="0px" y="0px" width="600px" height="600px" viewBox="0 0 600 600" enable-background="new 0 0 600 600" xml:space="preserve">
<g id="Layer_1">
</g>
<g id="Layer_2">
</g>
<g id="Layer_3">
</g>
<g id="Layer_4">
</g>
<g id="Layer_5">
</g>
<g id="Layer_6">
	<g>
		<g>
			<g>
				<path fill-rule="evenodd" clip-rule="evenodd" fill="#FEC300" d="M163.679,139.615l201.548,29.513l46.557,71.915      c0,0,13.133,60.488-7.188,81.726s-16.581,18.691-20.321,21.237c-3.74,2.545-3.74,2.545-3.74,2.545s-35.271,13.15-51.452,7.757      c-16.181-5.393-29.643-7.192-35.946-15.282c-6.304-8.089-16.164-24.098-15.279-31.375c0.886-7.278-39.566-60.04-39.566-60.04      s-29.663-22.748-50.34-26.344c-20.676-3.597-37.755-9.889-37.755-9.889L163.679,139.615z"/>
				<g>
					<path fill-rule="evenodd" clip-rule="evenodd" fill="#1B1464" d="M429.574,263.697c3.516,0.593,6.596,1.021,9.639,1.641       c8.396,1.711,13.014,8.482,11.498,16.923c-1.016,5.668-3.76,10.436-7.705,14.63c-4.098,4.355-9.248,4.331-14.449,3.636       c-3.605-0.482-5.135,0.647-6.391,4.157c-13.961,38.97-53.441,61.273-93.215,52.778c-14.661-3.133-26.77-11.13-36.961-21.62       c-13.301-13.693-25.771-28.191-38.683-42.266c-27.39-29.855-58.766-54.139-96.939-68.787c-2.715-1.043-4.072-2.568-4.001-5.361       c0.282-11.174,0.235-22.371,1.001-33.514c0.97-14.152,2.596-28.258,3.985-42.381c0.145-1.48,0.476-2.974,0.937-4.393       c1.382-4.251,3.997-5.897,8.419-5.274c43.231,6.096,86.461,12.204,129.691,18.323c23.235,3.288,46.572,5.99,69.674,10.043       c42.58,7.471,71.703,49.266,64.855,91.961C430.457,257.146,430.082,260.113,429.574,263.697z M169.371,182.838       c0.947,0.263,1.713,0.543,2.503,0.685c16.117,2.867,32.236,5.727,48.357,8.57c44.34,7.822,88.649,15.826,133.037,23.37       c22.915,3.896,41.003,14.531,50.911,35.989c10.941,23.691,7.592,46.503-9.033,66.272       c-16.754,19.923-38.791,26.484-64.211,20.361c-11.989-2.888-21.994-9.365-30.459-18.33c-0.85-0.9-2.669-0.889-4.036-1.298       c0.371,1.306,0.65,2.647,1.155,3.899c0.235,0.588,0.898,1.009,1.38,1.49c14.53,14.521,32.029,21.145,52.571,20.248       c37.492-1.637,67.713-38.287,61.951-75.364c-4.596-29.591-25.621-50.966-55.561-56.298       c-50.368-8.969-100.749-17.866-151.127-26.779c-11.152-1.974-22.315-3.888-33.475-5.825       C171.226,179.463,169.055,179.025,169.371,182.838z M325.508,193.486c2.357,0.625,3.265-0.874,3.576-3.275       c0.787-6.071,1.492-12.161,2.535-18.189c0.552-3.185-0.856-4.143-3.58-4.499c-7.96-1.046-15.915-2.124-23.861-3.269       c-2.255-0.324-3.63,0.077-3.956,2.688c-0.808,6.482-1.75,12.948-2.729,19.408c-0.325,2.15,0.216,3.379,2.546,3.683       C308.405,191.124,316.76,192.293,325.508,193.486z M425.361,293.573c3.146,0.172,5.584,0.299,8.021,0.438       c5.438,0.306,7.074-3.965,8.922-7.691c1.842-3.715,3.205-7.69,0.354-11.585c-0.693-0.945-1.779-1.935-2.857-2.198       c-3.035-0.745-6.15-1.249-9.26-1.547c-0.662-0.062-1.973,1.063-2.094,1.788C427.34,279.471,426.428,286.197,425.361,293.573z"/>
					<path fill-rule="evenodd" clip-rule="evenodd" fill="#1B1464" d="M316.227,128.647c1.75-14.783,3.275-28.466,5.04-42.118       c0.576-4.468,3.376-6.667,6.728-6.037c3.774,0.711,5.399,3.467,4.5,8.152c-2.493,12.984-5.085,25.95-7.637,38.922       c-0.08,0.402-0.105,0.823-0.248,1.201c-0.888,2.355-1.98,5.21-4.946,4.222C318.03,132.447,317.093,129.817,316.227,128.647z"/>
					<path fill-rule="evenodd" clip-rule="evenodd" fill="#1B1464" d="M373.771,98.209c-1.355,3.604-2.129,6.835-3.697,9.618       c-5.152,9.144-10.557,18.146-15.944,27.155c-1.561,2.609-3.758,5.821-6.968,4.189c-3.568-1.814-1.287-5.358-0.153-7.944       c4.216-9.609,8.566-19.165,13.021-28.668c1.202-2.567,2.628-5.182,4.549-7.21c1.309-1.38,4.063-2.853,5.436-2.336       C371.654,93.632,372.516,96.327,373.771,98.209z"/>
					<path fill-rule="evenodd" clip-rule="evenodd" fill="#1B1464" d="M294.438,126.114c-0.863,1.248-1.993,2.882-3.123,4.516       c-1.547-1.323-4.045-2.389-4.489-4.015c-3.042-11.145-5.791-22.377-8.284-33.658c-0.489-2.213,0.084-4.959,0.992-7.113       c1.463-3.473,4.815-3.789,7.063-0.763c1.342,1.807,2.56,4.021,2.901,6.2C291.269,102.565,292.738,113.897,294.438,126.114z"/>
				</g>
			</g>
			<g>
				<path fill="#1B1464" d="M289.9,380.627l-23.037,71.991h-26.02l-11.623-38.464l-12.238,38.464h-26.02l-23.037-71.991h24.992      l12.547,40.933l13.268-40.933h22.316l12.547,41.446l13.268-41.446H289.9z"/>
				<path fill="#1B1464" d="M366.215,432.77c0,12.547-10.592,19.849-30.441,19.849h-40.52v-71.991h38.463      c19.85,0,29.105,7.919,29.105,18.82c0,6.686-3.395,12.239-9.977,15.53C361.279,418.063,366.215,424.233,366.215,432.77z       M319.113,397.597v10.695h11.313c5.451,0,7.92-1.851,7.92-5.348s-2.469-5.348-7.92-5.348H319.113z M341.738,429.992      c0-3.702-2.674-5.656-8.021-5.656h-14.604v11.313h14.604C339.064,435.648,341.738,433.695,341.738,429.992z"/>
				<path fill="#1B1464" d="M370.23,446.859l7.816-17.689c6.787,4.011,15.838,6.582,23.756,6.582c6.891,0,9.359-1.44,9.359-3.908      c0-9.051-39.801-1.748-39.801-28.591c0-13.37,11.211-24.271,33.527-24.271c9.668,0,19.643,2.058,27.15,6.273l-7.301,17.587      c-7.098-3.6-13.781-5.348-20.055-5.348c-7.098,0-9.359,2.057-9.359,4.524c0,8.64,39.801,1.44,39.801,27.974      c0,13.164-11.211,24.271-33.527,24.271C389.564,454.264,377.43,451.281,370.23,446.859z"/>
			</g>
		</g>
	</g>
</g>
<g id="Layer_7">
</g>
<g id="Layer_8">
</g>
<g id="Layer_9">
</g>
<g id="Layer_10">
</g>
<g id="Layer_11">
</g>
<g id="Layer_12">
</g>
<g id="Layer_13">
</g>
<g id="Layer_14">
</g>
<g id="Layer_15">
</g>
<g id="Layer_16">
</g>
<g id="Layer_17">
</g>
<g id="Layer_18">
</g>
<g id="Layer_19">
</g>
<g id="Layer_20">
</g>
</svg>