<?xml version="1.0" standalone="no"?>
<!DOCTYPE svg PUBLIC "-//W3C//DTD SVG 20010904//EN"
 "http://www.w3.org/TR/2001/REC-SVG-20010904/DTD/svg10.dtd">
<svg version="1.0" xmlns="http://www.w3.org/2000/svg"
 width="200.000000pt" height="200.000000pt" viewBox="0 0 200.000000 200.000000"
 preserveAspectRatio="xMidYMid meet">

<g transform="translate(0.000000,200.000000) scale(0.100000,-0.100000)"
fill="#000000" stroke="none">
<path d="M1220 1590 c0 -15 7 -20 25 -20 36 0 95 -27 129 -58 93 -87 88 -260
-10 -341 -47 -38 -96 -51 -193 -51 l-81 0 0 -130 c0 -118 2 -130 18 -130 12 0
23 15 35 49 29 83 94 131 179 131 84 0 168 -67 184 -148 l7 -32 168 0 169 0 0
120 c0 113 -1 120 -20 120 -14 0 -20 -7 -20 -23 0 -37 -34 -89 -71 -109 -48
-25 -118 -24 -160 5 -66 44 -69 60 -69 365 l0 272 -145 0 c-138 0 -145 -1
-145 -20z"/>
<path d="M480 1589 c-127 -21 -237 -106 -297 -227 -25 -51 -28 -67 -28 -162 0
-96 3 -110 29 -165 58 -118 174 -204 304 -224 68 -11 92 -7 92 15 0 9 -12 14
-34 14 -27 0 -41 8 -70 40 -39 44 -73 106 -63 116 3 3 42 11 86 16 59 8 81 14
81 25 0 10 -8 13 -27 9 -16 -2 -58 -8 -94 -11 -77 -7 -75 -9 -85 90 l-7 65
107 0 c88 0 106 3 106 15 0 12 -18 15 -105 15 l-105 0 0 30 c0 16 5 52 11 80
10 46 13 51 33 46 13 -3 55 -9 94 -12 60 -6 72 -4 72 8 0 12 -18 16 -81 21
-44 3 -83 8 -86 11 -9 9 14 54 54 108 31 43 39 48 75 48 32 0 39 3 36 18 -4
21 -25 23 -98 11z m-50 -71 c-11 -18 -28 -48 -37 -65 -19 -37 -31 -40 -75 -17
-30 16 -30 16 -12 35 20 19 123 79 137 79 5 0 -1 -15 -13 -32z m-112 -112 c41
-18 44 -21 37 -50 -3 -17 -9 -55 -12 -83 l-6 -53 -79 0 -79 0 7 38 c4 20 11
48 16 62 15 40 59 112 66 108 4 -2 27 -12 50 -22z m25 -278 c4 -35 9 -74 12
-88 5 -22 0 -27 -45 -47 l-50 -22 -27 46 c-24 42 -53 128 -53 160 0 10 21 13
79 13 l78 0 6 -62z m49 -176 c9 -20 26 -52 38 -69 l22 -33 -32 11 c-38 14
-122 70 -127 85 -3 9 55 42 77 43 3 1 13 -16 22 -37z"/>
<path d="M647 1364 c1 -122 -2 -224 -7 -233 -6 -11 -10 13 -10 74 0 62 -3 85
-10 75 -23 -36 -6 -250 20 -250 22 0 25 46 34 388 3 145 2 162 -13 162 -15 0
-16 -22 -14 -216z"/>
<path d="M695 1320 l0 -240 26 0 c45 0 54 40 54 245 -1 203 -8 235 -52 235
l-28 0 0 -240z m49 154 c8 -20 8 -272 0 -301 -14 -51 -19 -14 -21 147 -3 154
4 199 21 154z"/>
<path d="M785 1340 c0 -180 2 -210 15 -210 13 0 15 30 15 210 0 180 -2 210
-15 210 -13 0 -15 -30 -15 -210z"/>
<path d="M835 1355 l0 -185 28 0 c18 0 27 5 27 16 0 9 8 22 17 29 14 10 15 17
6 36 -12 24 -12 24 -12 -5 -1 -16 -4 -26 -8 -22 -10 10 -14 222 -4 248 6 18
10 9 19 -42 6 -36 15 -101 19 -145 4 -44 9 -69 11 -55 2 14 -1 82 -8 152 -9
96 -16 128 -26 128 -8 0 -14 7 -14 15 0 8 -4 15 -10 15 -6 0 -10 -32 -10 -75
0 -50 -4 -75 -11 -75 -9 0 -10 22 -6 75 5 56 4 75 -6 75 -9 0 -12 -45 -12
-185z m34 -97 c-1 -57 -4 -75 -9 -58 -12 37 -12 140 0 140 6 0 10 -34 9 -82z"/>
<path d="M930 1490 c0 -11 5 -20 10 -20 6 0 10 9 10 20 0 11 -4 20 -10 20 -5
0 -10 -9 -10 -20z"/>
<path d="M795 1079 c-12 -69 -71 -174 -127 -224 -48 -43 -49 -46 -22 -40 58
13 136 58 184 106 50 50 117 169 105 188 -3 6 -35 11 -70 11 l-63 0 -7 -41z"/>
<path d="M304 698 c-3 -4 2 -15 10 -24 20 -20 22 -122 3 -149 -17 -23 -37 -12
-37 21 0 19 -5 24 -25 24 -19 0 -25 -5 -25 -23 0 -40 24 -62 69 -62 62 0 75
20 82 123 3 48 4 89 2 91 -6 9 -74 8 -79 -1z"/>
<path d="M419 709 c0 -2 -1 -52 -2 -111 l-2 -108 41 -6 c88 -13 154 50 140
135 -9 56 -45 84 -116 89 -33 2 -60 3 -61 1z m105 -51 c23 -33 21 -103 -4
-128 -12 -12 -25 -18 -30 -15 -6 4 -10 42 -10 86 0 62 3 79 14 79 8 0 22 -10
30 -22z"/>
<path d="M628 610 c3 -72 1 -100 -7 -100 -7 0 -9 -4 -6 -10 3 -5 23 -10 43
-10 l37 0 -1 107 -2 108 -34 3 -34 3 4 -101z"/>
<path d="M725 701 c-3 -5 -1 -12 5 -16 13 -8 13 -175 0 -175 -5 0 -10 -4 -10
-10 0 -5 20 -10 45 -10 42 0 58 11 35 25 -5 3 -10 19 -10 36 0 27 3 29 35 29
33 0 35 -2 35 -35 0 -19 -4 -35 -10 -35 -5 0 -10 -4 -10 -10 0 -5 20 -10 45
-10 42 0 58 11 35 25 -15 9 -13 162 2 167 23 8 -4 28 -37 28 -34 0 -54 -14
-35 -25 5 -3 10 -22 10 -41 0 -34 -1 -35 -32 -32 -26 2 -34 8 -36 26 -2 13 2
29 8 37 6 8 9 19 5 25 -8 13 -72 13 -80 1z"/>
<path d="M1005 701 c-3 -5 -1 -12 5 -16 14 -8 13 -175 -1 -175 -5 0 -7 -4 -4
-10 3 -5 26 -10 50 -10 24 0 47 5 50 10 3 6 -1 10 -9 10 -10 0 -16 9 -16 23 0
19 8 26 40 36 69 20 80 98 20 128 -29 15 -126 17 -135 4z m111 -48 c7 -27 -4
-54 -24 -61 -8 -2 -12 11 -12 42 0 52 25 65 36 19z"/>
<path d="M1186 701 c-4 -5 -2 -12 4 -16 5 -3 10 -39 10 -78 1 -75 9 -95 47
-115 35 -19 63 -14 94 17 27 27 29 35 29 100 0 38 5 73 10 76 17 11 0 25 -30
25 -33 0 -48 -16 -31 -33 13 -13 15 -126 2 -145 -4 -8 -19 -12 -32 -10 -23 3
-24 6 -25 93 l0 90 -36 3 c-20 2 -39 -1 -42 -7z"/>
<path d="M1406 701 c-4 -6 -3 -19 1 -28 10 -21 9 -141 -2 -165 -6 -16 -1 -18
44 -18 49 0 67 12 36 24 -26 10 -18 43 13 51 50 12 72 33 72 69 0 48 -28 69
-99 74 -36 3 -61 0 -65 -7z m104 -40 c13 -25 -3 -71 -25 -71 -11 0 -15 11 -15
45 0 49 20 62 40 26z"/>
<path d="M1586 702 c-3 -6 -2 -13 4 -17 14 -8 13 -175 -1 -175 -5 0 -7 -4 -4
-10 8 -13 85 -13 85 -1 0 6 -4 13 -10 16 -5 3 -10 20 -10 36 0 40 19 34 42
-12 16 -31 43 -59 57 -59 3 0 12 4 19 9 11 6 8 18 -16 56 -29 46 -29 48 -11
66 47 47 7 91 -85 97 -38 3 -66 0 -70 -6z m112 -53 c3 -27 -20 -55 -38 -44 -5
3 -10 22 -10 41 0 31 3 35 23 32 15 -2 23 -11 25 -29z"/>
</g>
</svg>
